<svg width="0" height="0" class="hidden">
  <symbol fill="none" xmlns="http://www.w3.org/2000/svg" viewBox="0 0 24 24" id="camera-color">
    <path fill-rule="evenodd" clip-rule="evenodd" d="M4.8541 8C3.83011 8 3 8.83011 3 9.8541V14.8571C3 16.8619 3 17.8643 3.45983 18.5961C3.69961 18.9777 4.02229 19.3004 4.4039 19.5402C5.13571 20 6.1381 20 8.14286 20H15.8571C17.8619 20 18.8643 20 19.5961 19.5402C19.9777 19.3004 20.3004 18.9777 20.5402 18.5961C21 17.8643 21 16.8619 21 14.8571V9.8541C21 8.83011 20.1699 8 19.1459 8C18.4436 8 17.8016 7.60322 17.4875 6.97508L16.6667 5.33333L16.6666 5.33329C16.5567 5.1134 16.5017 5.00345 16.4394 4.90782C16.1141 4.40882 15.5833 4.08078 14.9915 4.01299C14.8781 4 14.7552 4 14.5093 4H9.49071C9.24484 4 9.1219 4 9.00848 4.01299C8.41668 4.08078 7.8859 4.40882 7.56062 4.90782C7.49827 5.00346 7.44329 5.11342 7.33333 5.33333L6.51246 6.97508C6.19839 7.60322 5.55638 8 4.8541 8ZM12 17C14.2091 17 16 15.2091 16 13C16 10.7909 14.2091 9 12 9C9.79086 9 8 10.7909 8 13C8 15.2091 9.79086 17 12 17Z" fill="#8CFF9E"></path>
    <path d="M3 9.8541C3 8.83011 3.83011 8 4.8541 8V8C5.55638 8 6.19839 7.60322 6.51246 6.97508L7.33333 5.33333C7.44329 5.11342 7.49827 5.00346 7.56062 4.90782C7.8859 4.40882 8.41668 4.08078 9.00848 4.01299C9.1219 4 9.24484 4 9.49071 4H14.5093C14.7552 4 14.8781 4 14.9915 4.01299C15.5833 4.08078 16.1141 4.40882 16.4394 4.90782C16.5017 5.00346 16.5567 5.11342 16.6667 5.33333L17.4875 6.97508C17.8016 7.60322 18.4436 8 19.1459 8V8C20.1699 8 21 8.83011 21 9.8541V14.8571C21 16.8619 21 17.8643 20.5402 18.5961C20.3004 18.9777 19.9777 19.3004 19.5961 19.5402C18.8643 20 17.8619 20 15.8571 20H8.14286C6.1381 20 5.13571 20 4.4039 19.5402C4.02229 19.3004 3.69961 18.9777 3.45983 18.5961C3 17.8643 3 16.8619 3 14.8571V9.8541Z" stroke="#212121" stroke-width="1.2"></path>
    <circle cx="12" cy="13" r="3.4" stroke="#212121" stroke-width="1.2"></circle>
  </symbol>
  <symbol fill="none" xmlns="http://www.w3.org/2000/svg" viewBox="0 0 24 24" id="camera-oval">
    <rect width="24" height="24" rx="12" fill="#E2E8ED"></rect>
    <path fill-rule="evenodd" clip-rule="evenodd" d="M7.83156 9.66732C7.23423 9.66732 6.75 10.1515 6.75 10.7489V13.6673C6.75 15.3242 8.09315 16.6673 9.75 16.6673H14.25C15.9069 16.6673 17.25 15.3242 17.25 13.6673V10.7489C17.25 10.1515 16.7658 9.66732 16.1684 9.66732C15.7588 9.66732 15.3843 9.43586 15.2011 9.06945L14.7222 8.11176C14.4839 7.63509 13.9967 7.33398 13.4638 7.33398H10.5362C10.0033 7.33398 9.51611 7.63509 9.27778 8.11176L8.79894 9.06945C8.61573 9.43586 8.24122 9.66732 7.83156 9.66732ZM12.0003 14.9176C13.289 14.9176 14.3337 13.873 14.3337 12.5843C14.3337 11.2956 13.289 10.251 12.0003 10.251C10.7117 10.251 9.66699 11.2956 9.66699 12.5843C9.66699 13.873 10.7117 14.9176 12.0003 14.9176Z" fill="#F3F4F6"></path>
    <path d="M6.75 10.7469C6.75 10.1496 7.23423 9.66536 7.83156 9.66536V9.66536C8.24122 9.66536 8.61573 9.43391 8.79894 9.06749L9.27778 8.10981C9.51611 7.63313 10.0033 7.33203 10.5362 7.33203H13.4638C13.9967 7.33203 14.4839 7.63314 14.7222 8.10981L15.2011 9.06749C15.3843 9.43391 15.7588 9.66536 16.1684 9.66536V9.66536C16.7658 9.66536 17.25 10.1496 17.25 10.7469V13.6654C17.25 13.6654 17.25 13.6654 17.25 13.6654C17.25 15.3222 15.9069 16.6654 14.25 16.6654C14.25 16.6654 14.25 16.6654 14.25 16.6654H9.75C9.75 16.6654 9.75 16.6654 9.75 16.6654C8.09315 16.6654 6.75 15.3222 6.75 13.6654C6.75 13.6654 6.75 13.6654 6.75 13.6654V10.7469Z" stroke="#212121" stroke-width="1.2"></path>
    <path d="M13.7346 12.5833C13.7346 13.5406 12.9586 14.3167 12.0013 14.3167C11.044 14.3167 10.268 13.5406 10.268 12.5833C10.268 11.626 11.044 10.85 12.0013 10.85C12.9586 10.85 13.7346 11.626 13.7346 12.5833Z" stroke="#212121" stroke-width="1.2"></path>
  </symbol>
  <symbol fill="none" xmlns="http://www.w3.org/2000/svg" viewBox="0 0 24 24" id="close">
    <circle cx="12" cy="12" r="9" fill="#E2E8ED"></circle>
    <path d="M16 8L8 16" stroke="#212121" stroke-width="1.2" stroke-linecap="round" stroke-linejoin="round"></path>
    <path d="M8 8L16 16" stroke="#212121" stroke-width="1.2" stroke-linecap="round" stroke-linejoin="round"></path>
  </symbol>
  <symbol fill="none" xmlns="http://www.w3.org/2000/svg" viewBox="0 0 16 16" id="edit-gray">
    <path d="M8.57639 4.57574L3.9681 9.18402C3.9563 9.19582 3.94451 9.20758 3.93276 9.21929C3.77314 9.37847 3.61969 9.53148 3.5113 9.72293C3.4029 9.91438 3.35064 10.1247 3.29627 10.3435C3.29227 10.3596 3.28826 10.3757 3.28421 10.3919L2.95401 11.7127C2.9516 11.7223 2.94916 11.7321 2.94671 11.7419C2.90809 11.8959 2.86442 12.0702 2.84992 12.2185C2.83377 12.3836 2.83525 12.6828 3.07654 12.9241C3.31782 13.1654 3.61706 13.1669 3.78218 13.1507C3.93045 13.1362 4.10471 13.0926 4.25879 13.0539C4.2686 13.0515 4.27832 13.049 4.28796 13.0466L5.60874 12.7164C5.62494 12.7124 5.64109 12.7084 5.6572 12.7044C5.87597 12.65 6.08627 12.5978 6.27772 12.4894C6.46917 12.381 6.62218 12.2275 6.78135 12.0679C6.79307 12.0561 6.80483 12.0444 6.81663 12.0325L11.4249 7.42426C11.4426 7.40662 11.4601 7.38909 11.4777 7.37165C11.6967 7.15341 11.9019 6.94888 12.0201 6.71043C12.2419 6.26278 12.2419 5.73722 12.0201 5.28957C11.9019 5.05112 11.6967 4.84659 11.4777 4.62835C11.4601 4.61091 11.4426 4.59338 11.4249 4.57574C11.4073 4.55809 11.3897 4.5405 11.3723 4.523C11.1541 4.304 10.9495 4.09875 10.7111 3.98058C10.2634 3.75876 9.73787 3.75876 9.29023 3.98058C9.05177 4.09875 8.84723 4.304 8.629 4.523C8.61156 4.5405 8.59403 4.5581 8.57639 4.57574Z" stroke="#808080" stroke-width="1.2"></path>
    <path d="M8.33398 5L11.0007 7.66667" stroke="#808080" stroke-width="1.2"></path>
  </symbol>
  <symbol fill="none" xmlns="http://www.w3.org/2000/svg" viewBox="0 0 24 24" id="map-color">
    <path d="M4.5 7.5L8.5 5.5V15.5L5.5 17H4.5V7.5Z" fill="#8CFF9E"></path>
    <path d="M19.5 15.5L15.5 17.5V7.5L18.5 6H19.5V15.5Z" fill="#8CFF9E"></path>
    <path d="M19.5 15.2219V6.22812C19.5 5.89359 19.148 5.67602 18.8488 5.82562L15.6566 7.42172C15.5559 7.47207 15.4399 7.48284 15.3317 7.45191L8.66831 5.54809C8.56005 5.51716 8.44414 5.52793 8.34344 5.57828L4.74875 7.37562C4.5963 7.45185 4.5 7.60767 4.5 7.77812V16.7719C4.5 17.1064 4.85204 17.324 5.15125 17.1744L8.34344 15.5783C8.44414 15.5279 8.56005 15.5172 8.66831 15.5481L15.3317 17.4519C15.4399 17.4828 15.5559 17.4721 15.6566 17.4217L19.2512 15.6244C19.4037 15.5482 19.5 15.3923 19.5 15.2219Z" stroke="#212121"></path>
    <path d="M15.5 17.5V7.5" stroke="#212121"></path>
    <path d="M8.5 15.5V5.5" stroke="#212121"></path>
  </symbol>
  <symbol fill="none" xmlns="http://www.w3.org/2000/svg" viewBox="0 0 24 24" id="no-profile">
    <circle cx="12" cy="12" r="12" fill="#F3F4F6"></circle>
    <circle cx="12.272" cy="7.90874" r="3.54545" fill="#E2E8ED"></circle>
    <path d="M12 18.5469H18C18 15.2332 15.3137 12.5469 12 12.5469C8.68629 12.5469 6 15.2332 6 18.5469H12Z" fill="#E2E8ED"></path>
  </symbol>
  <symbol fill="none" xmlns="http://www.w3.org/2000/svg" viewBox="0 0 24 24" id="pin">
    <path d="M19.3612 17C20.1072 17.4561 20.5 17.9734 20.5 18.5C20.5 19.0266 20.1072 19.5439 19.3612 20C18.6152 20.4561 17.5422 20.8348 16.25 21.0981C14.9578 21.3614 13.4921 21.5 12 21.5C10.5079 21.5 9.04216 21.3614 7.75 21.0981C6.45784 20.8348 5.38482 20.4561 4.63878 20C3.89275 19.5439 3.5 19.0266 3.5 18.5C3.5 17.9734 3.89275 17.4561 4.63878 17" stroke="#212121" stroke-linecap="round"></path>
    <path d="M19.5 10C19.5 15.018 14.0117 18.4027 12.4249 19.2764C12.1568 19.424 11.8432 19.424 11.5751 19.2764C9.98831 18.4027 4.5 15.018 4.5 10C4.5 5.5 8.13401 2.5 12 2.5C16 2.5 19.5 5.5 19.5 10Z" stroke="#212121"></path>
    <circle cx="12" cy="10" r="3.5" stroke="#212121"></circle>
  </symbol>
  <symbol fill="none" xmlns="http://www.w3.org/2000/svg" viewBox="0 0 24 24" id="refresh">
    <path d="M14 15L10 19L14 23" stroke="#212121"></path>
    <path d="M5.93782 15.5C5.14475 14.1264 4.84171 12.5241 5.07833 10.9557C5.31495 9.38734 6.07722 7.94581 7.24024 6.86729C8.40327 5.78877 9.8981 5.13721 11.4798 5.01935C13.0616 4.90149 14.6365 5.32432 15.9465 6.21856C17.2565 7.1128 18.224 8.42544 18.6905 9.94144C19.1569 11.4574 19.0947 13.0869 18.5139 14.5629C17.9332 16.0389 16.8684 17.2739 15.494 18.0656C14.1196 18.8573 12.517 19.1588 10.9489 18.9206" stroke="#212121" stroke-linecap="round"></path>
  </symbol>
  <symbol fill="none" xmlns="http://www.w3.org/2000/svg" viewBox="0 0 16 16" id="time-gray">
    <circle cx="7.99935" cy="7.99935" r="5.83333" stroke="#808080"></circle>
    <path d="M11 7.99935H8.25C8.11193 7.99935 8 7.88742 8 7.74935V5.66602" stroke="#808080" stroke-linecap="round"></path>
  </symbol>
  <symbol fill="none" xmlns="http://www.w3.org/2000/svg" viewBox="0 0 16 16" id="trash-gray">
    <path d="M6.33398 9.66602L6.33398 7.66602" stroke="#808080" stroke-linecap="round"></path>
    <path d="M9.66602 9.66602L9.66602 7.66602" stroke="#808080" stroke-linecap="round"></path>
    <path d="M2 4.33398H14V4.33398C13.6904 4.33398 13.5356 4.33398 13.4056 4.35109C12.5081 4.46925 11.8019 5.17546 11.6838 6.07293C11.6667 6.2029 11.6667 6.3577 11.6667 6.66732V9.33399C11.6667 10.8977 11.6667 11.6796 11.2534 12.2182C11.147 12.3568 11.0229 12.481 10.8842 12.5874C10.3456 13.0007 9.56372 13.0007 8 13.0007V13.0007C6.43628 13.0007 5.65443 13.0007 5.11581 12.5874C4.97715 12.481 4.85303 12.3568 4.74663 12.2182C4.33333 11.6796 4.33333 10.8977 4.33333 9.33398V6.66732C4.33333 6.3577 4.33333 6.2029 4.31622 6.07293C4.19807 5.17546 3.49185 4.46925 2.59439 4.35109C2.46442 4.33398 2.30961 4.33398 2 4.33398V4.33398Z" stroke="#808080" stroke-linecap="round"></path>
    <path d="M6.33268 2.33284C6.33268 2.33284 6.66602 1.66602 7.99935 1.66602C9.33268 1.66602 9.66602 2.33268 9.66602 2.33268" stroke="#808080" stroke-linecap="round"></path>
  </symbol>
  <symbol fill="none" xmlns="http://www.w3.org/2000/svg" viewBox="0 0 24 24" id="no-image">
    <path d="M21 16L18.554 14.1655C18.1882 13.8912 18.0054 13.754 17.8176 13.6663C17.2959 13.4226 16.6944 13.4156 16.1671 13.6471C15.9774 13.7304 15.7914 13.8633 15.4194 14.129C14.9747 14.4466 14.7524 14.6054 14.531 14.6946C13.9137 14.9431 13.2132 14.8683 12.6622 14.495C12.4647 14.3612 12.2809 14.159 11.9134 13.7547L3.5 4.5L6.5 3L18.5 3.5C19.7344 4.11721 20.5372 5.35514 20.5971 6.73396L21 16Z" fill="#E2E8ED" stroke="#212121" stroke-width="0.1" stroke-linecap="round"/>
    <path d="M4.44396 4.5964L4.04036 4.15243L3.15243 4.95964L3.55604 5.4036L4.44396 4.5964ZM12.8838 14.7722L12.4399 15.1758L12.4399 15.1758L12.8838 14.7722ZM18.1965 13.7572L18.5713 13.2886L18.5713 13.2886L18.1965 13.7572ZM14.7421 14.5159L14.2054 14.2475L14.2054 14.2475L14.7421 14.5159ZM14.7421 14.5158L14.2054 14.2475L14.2054 14.2475L14.7421 14.5158ZM15.0158 14.0017L15.5158 14.3333L15.5158 14.3333L15.0158 14.0017ZM18.1964 13.7572L18.5713 13.2886L18.5713 13.2886L18.1964 13.7572ZM17.7324 13.405L18.0474 12.8943L18.0474 12.8943L17.7324 13.405ZM13.1139 15.0122L13.5005 14.5534L13.5005 14.5534L13.1139 15.0122ZM14.5855 14.8092L14.0892 14.4722L14.0892 14.4722L14.5855 14.8092ZM3.55604 5.4036L12.4399 15.1758L13.3278 14.3686L4.44396 4.5964L3.55604 5.4036ZM17.8216 14.2257L20.6252 16.4685L21.3748 15.5315L18.5713 13.2886L17.8216 14.2257ZM15.2787 14.7842L15.2787 14.7842L14.2054 14.2475L14.2054 14.2475L15.2787 14.7842ZM15.2787 14.7842C15.4248 14.4921 15.4738 14.3967 15.5158 14.3333L14.5158 13.67C14.4227 13.8103 14.3343 13.9898 14.2054 14.2475L15.2787 14.7842ZM18.5713 13.2886L18.5713 13.2886L17.8216 14.2257L17.8216 14.2257L18.5713 13.2886ZM18.5713 13.2886C18.3463 13.1086 18.1907 12.9827 18.0474 12.8943L17.4174 13.9157C17.4821 13.9556 17.5666 14.0217 17.8216 14.2257L18.5713 13.2886ZM15.5158 14.3333C15.9333 13.704 16.7747 13.5192 17.4175 13.9157L18.0474 12.8943C16.8537 12.158 15.2911 12.5012 14.5158 13.67L15.5158 14.3333ZM12.4399 15.1758C12.5443 15.2907 12.6378 15.3956 12.7274 15.4711L13.5005 14.5534C13.5007 14.5535 13.491 14.5453 13.46 14.5126C13.4291 14.48 13.3893 14.4362 13.3278 14.3686L12.4399 15.1758ZM14.2054 14.2475C14.1645 14.3293 14.138 14.3823 14.1171 14.422C14.0961 14.4619 14.089 14.4723 14.0892 14.4722L15.0819 15.1463C15.1477 15.0494 15.2093 14.9231 15.2787 14.7842L14.2054 14.2475ZM12.7274 15.4711C13.4532 16.0826 14.5487 15.9315 15.0819 15.1463L14.0892 14.4722C13.9559 14.6685 13.682 14.7062 13.5005 14.5534L12.7274 15.4711Z" fill="#212121"/>
    <path d="M3 13V11C3 7.22876 3 5.34315 4.17157 4.17157C5.34315 3 7.22876 3 11 3H13C16.7712 3 18.6569 3 19.8284 4.17157C21 5.34315 21 7.22876 21 11V13C21 16.7712 21 18.6569 19.8284 19.8284C18.6569 21 16.7712 21 13 21H12" stroke="#212121" stroke-width="1.2"/>
    <circle cx="16.5" cy="7.5" r="1.5" fill="#212121"/>
    <path d="M8.5 16L4 20.5" stroke="#212121" stroke-width="1.2" stroke-linecap="round"/>
    <path d="M8.5 20.5L4 16" stroke="#212121" stroke-width="1.2" stroke-linecap="round"/>
  </symbol>
  <symbol fill="none" xmlns="http://www.w3.org/2000/svg" viewBox="0 0 24 24" id="arrow-right">
    <path d="M9 6L15 12L9 18" stroke="#212121"/>
  </symbol>
  <symbol fill="none" xmlns="http://www.w3.org/2000/svg" id="arrow-left" viewBox="0 0 24 24">
    <path d="M15 6L9 12L15 18" stroke="#212121"></path>
  </symbol>
  <symbol width="24" height="24" viewBox="0 0 24 24" fill="none" xmlns="http://www.w3.org/2000/svg" id="three-dot">
    <g clip-path="url(#clip0_562_2519)">
    <circle cx="12" cy="6" r="2" fill="#808080"/>
    <circle cx="12" cy="12" r="2" fill="#808080"/>
    <circle cx="12" cy="18" r="2" fill="#808080"/>
    </g>
    <defs>
    <clipPath id="clip0_562_2519">
    <rect width="4" height="16" fill="white" transform="translate(10 4)"/>
    </clipPath>
    </defs>
  </symbol>
  <symbol width="24" height="24" viewBox="0 0 24 24" fill="none" xmlns="http://www.w3.org/2000/svg" id="before-check">
    <circle cx="12" cy="12" r="8" fill="#E2E8ED"/>
    <path d="M9.5 12L11.3939 13.8939C11.4525 13.9525 11.5475 13.9525 11.6061 13.8939L15.5 10" stroke="#808080" stroke-width="1.2" stroke-linecap="round"/>
  </symbol>
  <symbol width="24" height="24" viewBox="0 0 24 24" fill="none" xmlns="http://www.w3.org/2000/svg" id="after-check">
    <circle cx="12" cy="12" r="8" fill="#8CFF9E"/>
    <path d="M9.5 12L11.3939 13.8939C11.4525 13.9525 11.5475 13.9525 11.6061 13.8939L15.5 10" stroke="#222222" stroke-width="1.2" stroke-linecap="round"/>
  </symbol>
 <symbol fill="none" xmlns="http://www.w3.org/2000/svg" viewBox="0 0 16 16" id="arrow-drop-down">
    <path d="M7.24074 11.6142L3.41496 7.15079C2.85896 6.50212 3.31987 5.5 4.17422 5.5L11.8258 5.5C12.6801 5.5 13.141 6.50212 12.585 7.15079L8.75926 11.6142C8.36016 12.0798 7.63984 12.0798 7.24074 11.6142Z" fill="#212121"></path>
  </symbol>
    <symbol fill="none" xmlns="http://www.w3.org/2000/svg" viewBox="0 0 24 24" id="calendar-gray">
    <rect x="3" y="6" width="18" height="15" rx="2" stroke="#808080"></rect>
    <path d="M3 11L21 11" stroke="#808080" stroke-linecap="round"></path>
    <path d="M9 16H15" stroke="#808080" stroke-linecap="round"></path>
    <path d="M8 3L8 7" stroke="#808080" stroke-linecap="round"></path>
    <path d="M16 3L16 7" stroke="#808080" stroke-linecap="round"></path>
  </symbol>
  <symbol width="24" height="24" viewBox="0 0 24 24" fill="none" xmlns="http://www.w3.org/2000/svg" id="search-light">
    <circle cx="11" cy="11" r="6" stroke="#808080"/>
    <path d="M20 20L17 17" stroke="#808080" stroke-linecap="round"/>
  </symbol>
  <symbol fill="none" xmlns="http://www.w3.org/2000/svg" viewBox="0 0 24 24" id="full">
    <path d="M20 20V21H21V20H20ZM15.7071 14.2929C15.3166 13.9024 14.6834 13.9024 14.2929 14.2929C13.9024 14.6834 13.9024 15.3166 14.2929 15.7071L15.7071 14.2929ZM19 14V20H21V14H19ZM20 19H14V21H20V19ZM20.7071 19.2929L15.7071 14.2929L14.2929 15.7071L19.2929 20.7071L20.7071 19.2929Z" fill="#212121"></path>
    <path d="M4 20H3V21H4V20ZM9.70711 15.7071C10.0976 15.3166 10.0976 14.6834 9.70711 14.2929C9.31658 13.9024 8.68342 13.9024 8.29289 14.2929L9.70711 15.7071ZM3 14V20H5V14H3ZM4 21H10V19H4V21ZM4.70711 20.7071L9.70711 15.7071L8.29289 14.2929L3.29289 19.2929L4.70711 20.7071Z" fill="#212121"></path>
    <path d="M20 4H21V3H20V4ZM14.2929 8.29289C13.9024 8.68342 13.9024 9.31658 14.2929 9.70711C14.6834 10.0976 15.3166 10.0976 15.7071 9.70711L14.2929 8.29289ZM21 10V4H19V10H21ZM20 3H14V5H20V3ZM19.2929 3.29289L14.2929 8.29289L15.7071 9.70711L20.7071 4.70711L19.2929 3.29289Z" fill="#212121"></path>
    <path d="M4 4V3H3V4H4ZM8.29289 9.70711C8.68342 10.0976 9.31658 10.0976 9.70711 9.70711C10.0976 9.31658 10.0976 8.68342 9.70711 8.29289L8.29289 9.70711ZM5 10V4H3V10H5ZM4 5H10V3H4V5ZM3.29289 4.70711L8.29289 9.70711L9.70711 8.29289L4.70711 3.29289L3.29289 4.70711Z" fill="#212121"></path>
  </symbol>
  <symbol fill="none" xmlns="http://www.w3.org/2000/svg" viewBox="0 0 24 24" id="gps">
    <circle cx="12" cy="12" r="7" stroke="#212121" stroke-width="2"></circle>
    <circle cx="12" cy="12" r="2" fill="#212121" stroke="#212121" stroke-width="2"></circle>
    <path d="M12 5V3" stroke="#212121" stroke-width="2" stroke-linecap="round"></path>
    <path d="M19 12L21 12" stroke="#212121" stroke-width="2" stroke-linecap="round"></path>
    <path d="M12 21L12 19" stroke="#212121" stroke-width="2" stroke-linecap="round"></path>
    <path d="M3 12H5" stroke="#212121" stroke-width="2" stroke-linecap="round"></path>
  </symbol>
  <symbol fill="none" xmlns="http://www.w3.org/2000/svg" viewBox="0 0 24 24" id="reduce">
    <path d="M15 15V14H14V15H15ZM20.2929 21.7071C20.6834 22.0976 21.3166 22.0976 21.7071 21.7071C22.0976 21.3166 22.0976 20.6834 21.7071 20.2929L20.2929 21.7071ZM15 9H14V10H15V9ZM21.7071 3.70711C22.0976 3.31658 22.0976 2.68342 21.7071 2.29289C21.3166 1.90237 20.6834 1.90237 20.2929 2.29289L21.7071 3.70711ZM9 15H10V14H9V15ZM2.29289 20.2929C1.90237 20.6834 1.90237 21.3166 2.29289 21.7071C2.68342 22.0976 3.31658 22.0976 3.70711 21.7071L2.29289 20.2929ZM9 9V10H10V9H9ZM3.70711 2.29289C3.31658 1.90237 2.68342 1.90237 2.29289 2.29289C1.90237 2.68342 1.90237 3.31658 2.29289 3.70711L3.70711 2.29289ZM16 20V15H14V20H16ZM15 16H20V14H15V16ZM14.2929 15.7071L20.2929 21.7071L21.7071 20.2929L15.7071 14.2929L14.2929 15.7071ZM14 4V9H16V4H14ZM15 10H20V8H15V10ZM15.7071 9.70711L21.7071 3.70711L20.2929 2.29289L14.2929 8.29289L15.7071 9.70711ZM10 20V15H8V20H10ZM9 14H4V16H9V14ZM8.29289 14.2929L2.29289 20.2929L3.70711 21.7071L9.70711 15.7071L8.29289 14.2929ZM8 4V9H10V4H8ZM9 8H4V10H9V8ZM9.70711 8.29289L3.70711 2.29289L2.29289 3.70711L8.29289 9.70711L9.70711 8.29289Z" fill="#212121"></path>
  </symbol>
  <symbol fill="none" xmlns="http://www.w3.org/2000/svg" viewBox="0 0 24 24" id="tapbar-feed-active">
    <path d="M20 11C20 8.19108 20 6.78661 19.3259 5.77772C19.034 5.34096 18.659 4.96596 18.2223 4.67412C17.2134 4 15.8089 4 13 4V4C10.1911 4 8.78661 4 7.77772 4.67412C7.34096 4.96596 6.96596 5.34096 6.67412 5.77772C6 6.78661 6 8.19108 6 11V16C6 16.9428 6 17.4142 6.29289 17.7071C6.58579 18 7.05719 18 8 18H13C15.8089 18 17.2134 18 18.2223 17.3259C18.659 17.034 19.034 16.659 19.3259 16.2223C20 15.2134 20 13.8089 20 11V11Z" fill="#E2E8ED" stroke="#212121" stroke-width="1.2"></path>
    <path d="M18 14C18 11.1911 18 9.78661 17.3259 8.77772C17.034 8.34096 16.659 7.96596 16.2223 7.67412C15.2134 7 13.8089 7 11 7V7C8.19108 7 6.78661 7 5.77772 7.67412C5.34096 7.96596 4.96596 8.34096 4.67412 8.77772C4 9.78661 4 11.1911 4 14V19C4 19.9428 4 20.4142 4.29289 20.7071C4.58579 21 5.05719 21 6 21H11C13.8089 21 15.2134 21 16.2223 20.3259C16.659 20.034 17.034 19.659 17.3259 19.2223C18 18.2134 18 16.8089 18 14V14Z" fill="#8CFF9E" stroke="#212121" stroke-width="1.2"></path>
    <path d="M8 12L14 12" stroke="#212121" stroke-width="1.2" stroke-linecap="round" stroke-linejoin="round"></path>
    <path d="M8 16H11" stroke="#212121" stroke-width="1.2" stroke-linecap="round" stroke-linejoin="round"></path>
  </symbol>
  <symbol fill="none" xmlns="http://www.w3.org/2000/svg" viewBox="0 0 24 24" id="tapbar-feed">
    <path d="M20 11C20 8.19108 20 6.78661 19.3259 5.77772C19.034 5.34096 18.659 4.96596 18.2223 4.67412C17.2134 4 15.8089 4 13 4V4C10.1911 4 8.78661 4 7.77772 4.67412C7.34096 4.96596 6.96596 5.34096 6.67412 5.77772C6 6.78661 6 8.19108 6 11V16C6 16.9428 6 17.4142 6.29289 17.7071C6.58579 18 7.05719 18 8 18H13C15.8089 18 17.2134 18 18.2223 17.3259C18.659 17.034 19.034 16.659 19.3259 16.2223C20 15.2134 20 13.8089 20 11V11Z" fill="#E2E8ED" stroke="#808080" stroke-width="1.2"></path>
    <path d="M18 14C18 11.1911 18 9.78661 17.3259 8.77772C17.034 8.34096 16.659 7.96596 16.2223 7.67412C15.2134 7 13.8089 7 11 7V7C8.19108 7 6.78661 7 5.77772 7.67412C5.34096 7.96596 4.96596 8.34096 4.67412 8.77772C4 9.78661 4 11.1911 4 14V19C4 19.9428 4 20.4142 4.29289 20.7071C4.58579 21 5.05719 21 6 21H11C13.8089 21 15.2134 21 16.2223 20.3259C16.659 20.034 17.034 19.659 17.3259 19.2223C18 18.2134 18 16.8089 18 14V14Z" fill="#E2E8ED" stroke="#808080" stroke-width="1.2"></path>
    <path d="M8 12L14 12" stroke="#808080" stroke-width="1.2" stroke-linecap="round" stroke-linejoin="round"></path>
    <path d="M8 16H11" stroke="#808080" stroke-width="1.2" stroke-linecap="round" stroke-linejoin="round"></path>
  </symbol>
  <symbol fill="none" xmlns="http://www.w3.org/2000/svg" viewBox="0 0 24 24" id="tapbar-home-active">
    <path fill-rule="evenodd" clip-rule="evenodd" d="M12.398 19.804C13.881 19.0348 19 16.0163 19 11C19 7.13401 15.866 4 12 4C8.13401 4 5 7.13401 5 11C5 16.0163 10.119 19.0348 11.602 19.804C11.8548 19.9351 12.1452 19.9351 12.398 19.804ZM12 14C13.6569 14 15 12.6569 15 11C15 9.34315 13.6569 8 12 8C10.3431 8 9 9.34315 9 11C9 12.6569 10.3431 14 12 14Z" fill="#8CFF9E"></path>
    <path d="M12.398 19.804L12.6743 20.3366L12.6743 20.3366L12.398 19.804ZM11.602 19.804L11.3257 20.3366L11.3257 20.3366L11.602 19.804ZM18.4 11C18.4 13.2907 17.2328 15.1563 15.829 16.5722C14.4258 17.9876 12.8363 18.9007 12.1218 19.2713L12.6743 20.3366C13.4427 19.938 15.1542 18.9573 16.6812 17.4171C18.2077 15.8774 19.6 13.7256 19.6 11H18.4ZM12 4.6C15.5346 4.6 18.4 7.46538 18.4 11H19.6C19.6 6.80264 16.1974 3.4 12 3.4V4.6ZM5.6 11C5.6 7.46538 8.46538 4.6 12 4.6V3.4C7.80264 3.4 4.4 6.80264 4.4 11H5.6ZM11.8782 19.2714C11.1637 18.9007 9.57422 17.9876 8.17097 16.5722C6.76717 15.1563 5.6 13.2907 5.6 11H4.4C4.4 13.7256 5.79235 15.8774 7.31879 17.4171C8.8458 18.9573 10.5573 19.938 11.3257 20.3366L11.8782 19.2714ZM12.1218 19.2713C12.0421 19.3127 11.9579 19.3127 11.8782 19.2713L11.3257 20.3366C11.7518 20.5576 12.2482 20.5576 12.6743 20.3366L12.1218 19.2713ZM14.4 11C14.4 12.3255 13.3255 13.4 12 13.4V14.6C13.9882 14.6 15.6 12.9882 15.6 11H14.4ZM12 8.6C13.3255 8.6 14.4 9.67452 14.4 11H15.6C15.6 9.01178 13.9882 7.4 12 7.4V8.6ZM9.6 11C9.6 9.67452 10.6745 8.6 12 8.6V7.4C10.0118 7.4 8.4 9.01177 8.4 11H9.6ZM12 13.4C10.6745 13.4 9.6 12.3255 9.6 11H8.4C8.4 12.9882 10.0118 14.6 12 14.6V13.4Z" fill="#212121"></path>
  </symbol>
  <symbol fill="none" xmlns="http://www.w3.org/2000/svg" viewBox="0 0 24 24" id="tapbar-home">
    <path fill-rule="evenodd" clip-rule="evenodd" d="M12.398 19.804C13.881 19.0348 19 16.0163 19 11C19 7.13401 15.866 4 12 4C8.13401 4 5 7.13401 5 11C5 16.0163 10.119 19.0348 11.602 19.804C11.8548 19.9351 12.1452 19.9351 12.398 19.804ZM12 14C13.6569 14 15 12.6569 15 11C15 9.34315 13.6569 8 12 8C10.3431 8 9 9.34315 9 11C9 12.6569 10.3431 14 12 14Z" fill="#E2E8ED"></path>
    <path d="M12.398 19.804L12.6743 20.3366L12.6743 20.3366L12.398 19.804ZM11.602 19.804L11.3257 20.3366L11.3257 20.3366L11.602 19.804ZM18.4 11C18.4 13.2907 17.2328 15.1563 15.829 16.5722C14.4258 17.9876 12.8363 18.9007 12.1218 19.2713L12.6743 20.3366C13.4427 19.938 15.1542 18.9573 16.6812 17.4171C18.2077 15.8774 19.6 13.7256 19.6 11H18.4ZM12 4.6C15.5346 4.6 18.4 7.46538 18.4 11H19.6C19.6 6.80264 16.1974 3.4 12 3.4V4.6ZM5.6 11C5.6 7.46538 8.46538 4.6 12 4.6V3.4C7.80264 3.4 4.4 6.80264 4.4 11H5.6ZM11.8782 19.2714C11.1637 18.9007 9.57422 17.9876 8.17097 16.5722C6.76717 15.1563 5.6 13.2907 5.6 11H4.4C4.4 13.7256 5.79235 15.8774 7.31879 17.4171C8.8458 18.9573 10.5573 19.938 11.3257 20.3366L11.8782 19.2714ZM12.1218 19.2713C12.0421 19.3127 11.9579 19.3127 11.8782 19.2713L11.3257 20.3366C11.7518 20.5576 12.2482 20.5576 12.6743 20.3366L12.1218 19.2713ZM14.4 11C14.4 12.3255 13.3255 13.4 12 13.4V14.6C13.9882 14.6 15.6 12.9882 15.6 11H14.4ZM12 8.6C13.3255 8.6 14.4 9.67452 14.4 11H15.6C15.6 9.01178 13.9882 7.4 12 7.4V8.6ZM9.6 11C9.6 9.67452 10.6745 8.6 12 8.6V7.4C10.0118 7.4 8.4 9.01177 8.4 11H9.6ZM12 13.4C10.6745 13.4 9.6 12.3255 9.6 11H8.4C8.4 12.9882 10.0118 14.6 12 14.6V13.4Z" fill="#808080"></path>
  </symbol>
  <symbol fill="none" xmlns="http://www.w3.org/2000/svg" viewBox="0 0 24 24" id="tapbar-log-active">
    <path d="M4.5 7.5L8.5 5.5V15.5L5.5 17H4.5V7.5Z" fill="#8CFF9E"></path>
    <path d="M19.5 15.5L15.5 17.5V7.5L18.5 6H19.5V15.5Z" fill="#8CFF9E"></path>
    <path d="M19.5 15.2219V6.22812C19.5 5.89359 19.148 5.67602 18.8488 5.82562L15.6566 7.42172C15.5559 7.47207 15.4399 7.48284 15.3317 7.45191L8.66831 5.54809C8.56005 5.51716 8.44414 5.52793 8.34344 5.57828L4.74875 7.37562C4.5963 7.45185 4.5 7.60767 4.5 7.77812V16.7719C4.5 17.1064 4.85204 17.324 5.15125 17.1744L8.34344 15.5783C8.44414 15.5279 8.56005 15.5172 8.66831 15.5481L15.3317 17.4519C15.4399 17.4828 15.5559 17.4721 15.6566 17.4217L19.2512 15.6244C19.4037 15.5482 19.5 15.3923 19.5 15.2219Z" stroke="#212121"></path>
    <path d="M15.5 17.5V7.5" stroke="#212121"></path>
    <path d="M8.5 15.5V5.5" stroke="#212121"></path>
  </symbol>
  <symbol fill="none" xmlns="http://www.w3.org/2000/svg" viewBox="0 0 24 24" id="tapbar-log">
    <path d="M4.5 7.5L8.5 5.5V15.5L5.5 17H4.5V7.5Z" fill="#E2E8ED"></path>
    <path d="M19.5 15.5L15.5 17.5V7.5L18.5 6H19.5V15.5Z" fill="#E2E8ED"></path>
    <path d="M19.5 15.2219V6.22812C19.5 5.89359 19.148 5.67602 18.8488 5.82562L15.6566 7.42172C15.5559 7.47207 15.4399 7.48284 15.3317 7.45191L8.66831 5.54809C8.56005 5.51716 8.44414 5.52793 8.34344 5.57828L4.74875 7.37562C4.5963 7.45185 4.5 7.60767 4.5 7.77812V16.7719C4.5 17.1064 4.85204 17.324 5.15125 17.1744L8.34344 15.5783C8.44414 15.5279 8.56005 15.5172 8.66831 15.5481L15.3317 17.4519C15.4399 17.4828 15.5559 17.4721 15.6566 17.4217L19.2512 15.6244C19.4037 15.5482 19.5 15.3923 19.5 15.2219Z" stroke="#808080"></path>
    <path d="M15.5 17.5V7.5" stroke="#808080"></path>
    <path d="M8.5 15.5V5.5" stroke="#808080"></path>
  </symbol>
  <symbol fill="none" xmlns="http://www.w3.org/2000/svg" viewBox="0 0 24 24" id="tapbar-my-active">
    <path d="M19.7274 20.4471C19.2716 19.1713 18.2672 18.0439 16.8701 17.2399C15.4729 16.4358 13.7611 16 12 16C10.2389 16 8.52706 16.4358 7.12991 17.2399C5.73276 18.0439 4.72839 19.1713 4.27259 20.4471" stroke="#212121" stroke-width="1.2" stroke-linecap="round"></path>
    <circle cx="12" cy="8" r="4" fill="#8CFF9E" stroke="#212121" stroke-width="1.2" stroke-linecap="round"></circle>
  </symbol>
  <symbol fill="none" xmlns="http://www.w3.org/2000/svg" viewBox="0 0 24 24" id="tapbar-my">
    <path d="M19.7274 20.4471C19.2716 19.1713 18.2672 18.0439 16.8701 17.2399C15.4729 16.4358 13.7611 16 12 16C10.2389 16 8.52706 16.4358 7.12991 17.2399C5.73276 18.0439 4.72839 19.1713 4.27259 20.4471" stroke="#808080" stroke-width="1.2" stroke-linecap="round"></path>
    <circle cx="12" cy="8" r="4" fill="#E2E8ED" stroke="#808080" stroke-width="1.2" stroke-linecap="round"></circle>
  </symbol>
</svg>



